<svg xmlns="http://www.w3.org/2000/svg" viewBox="0 0 34.5 34.5"><title>current</title><path d="M17.25 3.35a13.9 13.9 0 0 1 9.83 23.73A13.9 13.9 0 0 1 7.42 7.42a13.81 13.81 0 0 1 9.83-4.07m0-3.35A17.25 17.25 0 1 0 34.5 17.25 17.25 17.25 0 0 0 17.25 0zm0 14.11a3.14 3.14 0 1 0 3.14 3.14 3.14 3.14 0 0 0-3.14-3.14zm1.67-4.91a8.25 8.25 0 0 1 6.38 6.38h2.55a10.74 10.74 0 0 0-8.93-8.93zM9.2 15.58a8.25 8.25 0 0 1 6.38-6.38V6.64a10.74 10.74 0 0 0-8.93 8.93zm16.1 3.35a8.25 8.25 0 0 1-6.38 6.38v2.55a10.74 10.74 0 0 0 8.93-8.93zm-9.72 6.37a8.25 8.25 0 0 1-6.38-6.38H6.64a10.74 10.74 0 0 0 8.93 8.93z"/></svg>