<svg xmlns="http://www.w3.org/2000/svg" viewBox="0 0 33.49 33.49"><title>help</title><path d="M16.75 3.25a13.49 13.49 0 1 1-13.5 13.5 13.49 13.49 0 0 1 13.5-13.5m0-3.25a16.75 16.75 0 1 0 16.74 16.75A16.75 16.75 0 0 0 16.75 0zm.16 26.79a2.14 2.14 0 1 1 2.14-2.14 2.14 2.14 0 0 1-2.14 2.14zm1.68-6.33v.39h-3.53v-.39a4.79 4.79 0 0 1 1.42-3.7c1.27-1.22 2.85-2.22 2.85-3.74a2.44 2.44 0 0 0-2.63-2.57c-2.45 0-2.61 2.54-2.67 3.1H10.6c.09-2.65 1.21-6.35 6.12-6.35 4.26 0 6.17 2.85 6.17 5.52 0 4.28-4.3 4.99-4.3 7.74z"/></svg>