<svg xmlns="http://www.w3.org/2000/svg" viewBox="0 0 30.66 31.01"><title>ico-map</title><g id="レイヤー_2" data-name="レイヤー 2"><g id="レイヤー_1-2" data-name="レイヤー 1"><path id="pin-10-icon" d="M17,15.82V26.62H14.19V15.82a8.95,8.95,0,0,0,2.83,0ZM22.7,7.1A7.1,7.1,0,1,1,15.6,0,7.1,7.1,0,0,1,22.7,7.1Zm-7.9-4.16a1.65,1.65,0,0,0-2.31.39,1.73,1.73,0,0,0,0,2.39,1.65,1.65,0,0,0,2.31-.39A1.73,1.73,0,0,0,14.81,2.94ZM25.94,21.62H19.46v2.1h5.19l.93,1.85H19.46v1h1.47l1,2.3H9.47l1-2.3h1.36v-1H7.41l-.75-1.85h5.18v-2.1H4.72L0,31H30.66ZM8.33,28.92H3.4l2.34-4.66,1,2.37H9.33Zm13.74-2.3h4l1.15,2.3H23Z"/></g></g></svg>