<svg xmlns="http://www.w3.org/2000/svg" viewBox="0 0 33.83 26.53"><defs><style>.cls-1{fill:none;stroke:#000;stroke-miterlimit:10;stroke-width:2px}</style></defs><g><g><path d="M28.88.57L27.54 1.9l2.65 2.66h-7.6v1.99h7.6l-2.65 2.66 1.34 1.33 4.95-4.99L28.88.57z"/><path d="M0 5.55l4.96 4.99 1.33-1.33-2.64-2.66h7.59V4.56H3.65L6.29 1.9 4.96.57 0 5.55z"/><circle class="cls-1" cx="16.76" cy="5.68" r="4.68"/><path class="cls-1" d="M16.85 7.16a2.1 2.1 0 0 0-2.14 2.37v6c-2.18-1.2-3.64-.48-4.08.62a2.64 2.64 0 0 0 .93 2.85 11.61 11.61 0 0 1 3.54 6.53h8.82v-1.34c0-3.39 1.27-4 1.52-6.29.23-2.06-.51-3.77-2.57-4.17L19 13V9.53a2.14 2.14 0 0 0-2.15-2.37z"/></g></g></svg>