<svg xmlns="http://www.w3.org/2000/svg" viewBox="0 0 33.49 33.49"><title>help</title><g id="レイヤー_2" data-name="レイヤー 2"><g id="レイヤー_1-2" data-name="レイヤー 1"><path id="help-3-icon" d="M16.75,3.25A13.49,13.49,0,1,1,3.25,16.75,13.49,13.49,0,0,1,16.75,3.25m0-3.25A16.75,16.75,0,1,0,33.49,16.75,16.75,16.75,0,0,0,16.75,0Zm.16,26.79a2.14,2.14,0,1,1,2.14-2.14A2.14,2.14,0,0,1,16.91,26.79Zm1.68-6.33v.39H15.06v-.39a4.79,4.79,0,0,1,1.42-3.7c1.27-1.22,2.85-2.22,2.85-3.74a2.44,2.44,0,0,0-2.63-2.57c-2.45,0-2.61,2.54-2.67,3.1H10.6c.09-2.65,1.21-6.35,6.12-6.35,4.26,0,6.17,2.85,6.17,5.52C22.89,17,18.59,17.71,18.59,20.46Z"/></g></g></svg>