<svg xmlns="http://www.w3.org/2000/svg" viewBox="0 0 26 34.67"><title>railway</title><g id="レイヤー_2" data-name="レイヤー 2"><g id="レイヤー_1-2" data-name="レイヤー 1"><path id="code-fork-icon" d="M26,4.33a4.33,4.33,0,1,0-5.71,4.09c.24,6.2-2.92,6.88-7.22,7.79-2.47.52-5.26,1.12-7.3,3V8.4a4.33,4.33,0,1,0-2.89,0V26.27a4.33,4.33,0,1,0,2.93,0c.39-5.67,3.71-6.37,7.85-7.24,4.39-.92,9.79-2.08,9.5-10.66A4.32,4.32,0,0,0,26,4.33Zm-24.27,0a2.6,2.6,0,1,1,2.6,2.6A2.6,2.6,0,0,1,1.73,4.33Zm5.2,26a2.6,2.6,0,1,1-2.6-2.6A2.6,2.6,0,0,1,6.93,30.33ZM21.67,6.93a2.6,2.6,0,1,1,2.6-2.6A2.6,2.6,0,0,1,21.67,6.93Z"/></g></g></svg>